# xmcd
#
# Track frame offsets:
#	150
#	14473
#	34911
#	50961
#	68798
#	84986
#	100890
#	115890
#	136383
#	155197
#	170040
#	185444
#	203288
#	220670
#	235887
#	250518
#	269961
#	291885
#	309435
#	328761
#
# Disc length: 4619 seconds
#
# Revision: 0
# Processed by: cddbd v1.5.2PL0 Copyright (c) Steve Scherf et al.
# Submitted via: EZCDAudioConverter 1.0.2.1
#
DISCID=2b120914
DTITLE=Various Artist - Raggae Jamz Vol. 2
DYEAR=1900
DGENRE=
TTITLE0=Kevin Lyttle - Turn Me On
TTITLE1=Beenie Man Feat Ms. Thing - Dude
TTITLE2=Beenie Man - King Of The Dancehall
TTITLE3=Elephant Man - Jook Gal
TTITLE4=Mr. Vegas - Pull Up
TTITLE5=T.O.K - Gal You Ah Lead
TTITLE6=Sister Nancy, The Matals, Byron Lee, The Dragonaires - Bam Bam
TTITLE7=Sasha and Sean Paul - I'm Still In Love With You
TTITLE8=Cham - Vitamin S
TTITLE9=Wayne Wonder and Moob Deep, Fat Joe - Enemies Remix
TTITLE10=Tanto Metro and Devonte - Burn
TTITLE11=Sean Paul - Clap Your Hands Now
TTITLE12=Shaka Demus and Pliers - Murder She Wrote
TTITLE13=DMX, Sean Paul and Mr Vegaas - Top Shotter
TTITLE14=Vicious - Freaks
TTITLE15=Shaggy - Bombastic
TTITLE16=Maxi Priest and Shabba Ranks - House Call
TTITLE17=Terror Fabulous Feat Nadine Sutherland - Action
TTITLE18=Beenie Man and Mya - Girls Dem Sugar
TTITLE19=Shabba Ranks  - Ting A Ling
EXTD=
EXTT0=
EXTT1=
EXTT2=
EXTT3=
EXTT4=
EXTT5=
EXTT6=
EXTT7=
EXTT8=
EXTT9=
EXTT10=
EXTT11=
EXTT12=
EXTT13=
EXTT14=
EXTT15=
EXTT16=
EXTT17=
EXTT18=
EXTT19=
PLAYORDER=
